<?xml version="1.0" encoding="UTF-8"?>
<svg width="143px" height="48px" viewBox="0 0 143 48" version="1.1" xmlns="http://www.w3.org/2000/svg" xmlns:xlink="http://www.w3.org/1999/xlink">
    <title>Assets / Branding / 3pillar-logo</title>
    <g id="Assets-/-Branding-/-3pillar-logo" stroke="none" stroke-width="1" fill="none" fill-rule="evenodd">
        <g id="Branding-/-PPL-Mark" fill="#FFFFFF">
            <path d="M73.2490657,37.7282193 L81.6921664,37.7282193 L81.6921664,0.000706598985 L73.2490657,0.000706598985 L73.2490657,37.7282193 Z M113.561547,28.3321827 L113.561547,26.2228629 C113.378526,26.1863147 113.031519,26.1390457 112.519306,26.0834924 C112.007337,26.0284264 111.422891,26.0011371 110.765482,26.0011371 C108.572652,26.0011371 107.019175,26.3152081 106.105536,26.9443249 C105.19141,27.5749036 104.735079,28.4625381 104.735079,29.6094213 C104.735079,31.7567513 106.013782,32.8288325 108.572652,32.8288325 C109.814507,32.8288325 110.957531,32.4406904 111.99904,31.6629442 C113.041036,30.8866599 113.561547,29.7755939 113.561547,28.3321827 L113.561547,28.3321827 Z M113.780683,37.7143553 L113.561547,35.2719594 C111.733294,37.4192893 109.13904,38.4916142 105.776588,38.4916142 C104.570117,38.4916142 103.300442,38.2596548 101.965369,37.7981726 C100.63176,37.3347411 99.4894681,36.5126497 98.5397138,35.3270254 C97.5887394,34.1433503 97.1143503,32.5147614 97.1143503,30.4415025 C97.1143503,28.4067411 97.6346166,26.6865381 98.6775892,25.2789442 C99.7183657,23.8728122 101.1347,22.8082843 102.926105,22.086335 C104.716289,21.3656041 106.72683,21.0049949 108.956751,21.0049949 C109.869413,21.0049949 110.792569,21.024 111.725485,21.0598173 C112.657181,21.0963655 113.268714,21.1521624 113.561547,21.2259898 L113.561547,20.6709442 C113.561547,19.3388832 113.058606,18.3864365 112.053946,17.8121421 C111.048553,17.2388223 109.906262,16.9520406 108.627559,16.9520406 C106.909118,16.9520406 105.464965,17.1740102 104.296074,17.6184365 C103.125963,18.0616447 102.139361,18.5616244 101.335779,19.1169137 L98.1014408,14.2313909 C99.1602753,13.3803046 100.603941,12.5940305 102.432193,11.8720812 C104.259226,11.1498883 106.68925,10.7892792 109.723973,10.7892792 C113.634023,10.7892792 116.521842,11.8535635 118.38621,13.9811574 C120.250091,16.1102132 121.182275,18.9690152 121.182275,22.5590254 L121.182275,37.7143553 L113.780683,37.7143553 Z M124.671841,37.7281949 L124.671841,11.2970071 L132.237664,11.2970071 L132.511706,14.6219208 C133.169116,13.7199107 134.074457,12.8561543 135.225778,12.0287025 C136.377099,11.2032 137.86591,10.7892305 139.693674,10.7892305 C140.387932,10.7892305 140.982138,10.8272406 141.475317,10.9022863 C141.969229,10.977332 142.452891,11.1089056 142.928744,11.2970071 L141.668099,18.4536365 C140.863053,18.1912203 139.912811,18.0596467 138.816884,18.0596467 C136.952515,18.0596467 135.444915,18.6332102 134.293594,19.7788751 C133.142029,20.9245401 132.566857,22.5494741 132.566857,24.6527025 L132.566857,37.7281949 L124.671841,37.7281949 Z M38.3996973,23.2770761 L38.3996973,30.1193909 C39.4592638,30.8133198 40.9766256,31.1593096 42.9495863,31.1593096 C44.8871631,31.1593096 46.4120898,30.5029036 47.5275386,29.1893604 C48.6420113,27.8750863 49.1998577,26.1604873 49.1998577,24.0441015 C49.1998577,22.9123249 49.0261102,21.8453604 48.6788594,20.8410152 C48.3308765,19.8371574 47.7654652,19.0265178 46.9799413,18.4047107 C46.1929532,17.7850964 45.1431478,17.4754112 43.8268645,17.4754112 C42.0723082,17.4754112 40.72967,18.076264 39.7974857,19.2806497 C38.8657894,20.4852792 38.3996973,21.8175838 38.3996973,23.2770761 L38.3996973,23.2770761 Z M30.5598321,47.855269 L30.5598321,11.2344365 L38.1249225,11.2344365 C38.1978867,11.7090761 38.2527928,12.1737259 38.289885,12.6293604 C38.326001,13.0864569 38.3635812,13.5518376 38.3996973,14.0264772 C39.2408594,12.967066 40.318484,12.1564264 41.6340352,11.5894416 C42.9495863,11.0241624 44.3202877,10.7412792 45.7463833,10.7412792 C48.2684055,10.7412792 50.3694805,11.3623553 52.0508287,12.6023147 C53.7309567,13.843736 54.9923338,15.4676954 55.8334959,17.4754112 C56.674658,19.4821523 57.094873,21.6168122 57.094873,23.8793909 C57.094873,26.2516142 56.701013,28.3134213 55.9162212,30.0652995 C55.1287451,31.8164467 54.0796717,33.2586396 52.7633884,34.3894416 C51.4478372,35.5209746 50.0034396,36.3601218 48.4326358,36.9076142 C46.8601239,37.4555939 45.27053,37.728731 43.6628782,37.728731 C42.419559,37.728731 41.3953765,37.6188426 40.5932587,37.4000406 C39.7884567,37.1812386 39.0571068,36.9617056 38.3996973,36.7436345 L38.3996973,47.855269 L30.5598321,47.855269 Z M0,33.1726294 L4.5625785,27.215269 C5.77026962,28.2668832 7.00846416,29.0748426 8.27618601,29.6389036 C9.54317577,30.2036954 10.9373038,30.4856041 12.4580819,30.4856041 C14.2516826,30.4856041 15.7431775,29.9995127 16.9328106,29.0261117 C18.1219556,28.0529543 18.7166502,26.6901929 18.7166502,24.9375838 C18.7166502,23.5753096 18.2581229,22.368 17.3427765,21.3168731 C16.4257218,20.2652589 14.9737594,19.7401827 12.9846928,19.7401827 C12.2438259,19.7401827 11.5515205,19.8081624 10.9087526,19.9443655 C10.2645205,20.0810558 9.76841297,20.2270051 9.41701365,20.3827005 L7.25273549,16.9371777 L16.6699932,7.30014213 L2.92466724,7.30014213 L2.92466724,0 L26.0862747,0 L26.0862747,6.0151066 L18.4245495,14.6587614 C21.3492167,15.1650761 23.5615683,16.382132 25.0630683,18.309198 C26.5643242,20.2367513 27.3142201,22.6408934 27.3142201,25.5216244 C27.3142201,28.1309239 26.642901,30.3398985 25.2973345,32.1500102 C23.9520119,33.9610964 22.1869625,35.3426193 20.0036502,36.2972589 C17.8198498,37.2501929 15.4608379,37.7282437 12.9263703,37.7282437 C10.1964369,37.7282437 7.74957509,37.3191472 5.58578498,36.5021726 C3.42150683,35.683736 1.55909044,34.5736447 0,33.1726294 M85.9138387,37.7282193 L94.3569394,37.7282193 L94.3569394,0.000706598985 L85.9138387,0.000706598985 L85.9138387,37.7282193 Z M60.5843171,7.30964467e-05 L60.5843171,7.11260102 L67.456614,7.11260102 L60.5843171,14.1454538 L60.5843171,37.7280731 L69.0274177,37.7280731 L69.0274177,7.30964467e-05 L60.5843171,7.30964467e-05 Z" id="Combined-Shape"></path>
        </g>
    </g>
</svg>